Leaving Las Vegas 1995 DVDRip Xvid BigPerm LKRG 


Cast:

Nicolas Cage ... Ben Sanderson

Elisabeth Shue ... Sera

Julian Sands ... Yuri
Richard Lewis ... Peter
Steven Weber ... Marc Nussbaum
Kim Adams ... Sheila
Emily Procter ... Debbie
Stuart Regen ... Man at Bar
Valeria Golino ... Terri
Graham Beckel ... L.A. Bartender
Albert Henderson ... Man at Strip Bar
Shashi Bhatia ... Hispanic Prostitute
Carey Lowell ... Bank Teller
Anne Lange ... Business Colleague
Thomas Kopache ... Mr. Simpson


General:

Complete name : Leaving Las Vegas 1995 DVDRip Xvid BigPerm LKRGLLVLKRG.avi
Format : AVI
Format/Info : Audio Video Interleave
Format profile : OpenDML
File size : 1.06 GiB
Duration : 1h 51mn
Overall bit rate : 1 360 Kbps

Video:

ID : 0
Format : MPEG-4 Visual
Format profile : Advanced Simple@L5
Format settings, BVOP : Yes
Format settings, QPel : No
Format settings, GMC : No warppoints
Format settings, Matrix : Default (H.263)
Codec ID : XVID
Codec ID/Hint : XviD
Duration : 1h 51mn
Bit rate : 970 Kbps
Width : 700 pixels
Height : 392 pixels
Display aspect ratio : 16:9
Frame rate : 23.976 fps
Resolution : 8 bits
Colorimetry : 4:2:0
Scan type : Progressive
Bits/(Pixel*Frame) : 0.147
Stream size : 776 MiB (71%)
Writing library : XviD 1.2.1 (UTC 2008-12-04)

Audio:

ID : 1
Format : AC-3
Format/Info : Audio Coding 3
Codec ID : 2000
Duration : 1h 51mn
Bit rate mode : Constant
Bit rate : 384 Kbps
Channel(s) : 6 channels
Channel positions : Front: L C R, Side: L R, LFE
Sampling rate : 48.0 KHz
Resolution : 16 bits
Video delay : 42ms
Stream size : 307 MiB (28%)
Alignment : Split accross interleaves
Language : English